<svg xmlns="http://www.w3.org/2000/svg" fill-rule="evenodd" viewBox="0 0 100 100">
    <path d="M50 60.8c-17.008 0-30.845 13.837-30.845 30.845a1.5 1.5 0 0 0 1.5 1.5h58.69a1.5 1.5 0 0 0 1.5-1.5C80.845 74.637 67.008 60.8 50 60.8zM22.195 90.145C22.977 75.486 35.15 63.8 50 63.8s27.023 11.686 27.805 26.345h-55.61zm27.296-32.088c9.838 0 17.843-8.007 17.843-17.85 0-3.477-1.003-6.831-2.89-9.726V8.355a1.5 1.5 0 0 0-1.5-1.5H36.04a1.5 1.5 0 0 0-1.5 1.5v22.116a17.767 17.767 0 0 0-2.895 9.736c-.001 9.843 8.005 17.85 17.846 17.85zM37.539 9.856h23.904v19.947H37.539V9.856zm-.91 22.946h25.729a14.776 14.776 0 0 1 1.976 7.405c-.001 8.189-6.659 14.85-14.843 14.85-8.186 0-14.846-6.662-14.846-14.85 0-2.617.686-5.157 1.984-7.405z"/>
    <path d="M54.718 18.495h-3.727v-3.733a1.5 1.5 0 1 0-3 0v3.733h-3.728a1.5 1.5 0 1 0 0 3h3.728v3.728a1.5 1.5 0 1 0 3 0v-3.728h3.727a1.5 1.5 0 1 0 0-3z"/>
</svg>
