<svg xmlns="http://www.w3.org/2000/svg" fill-rule="evenodd" viewBox="0 0 100 100">
    <path d="M25.535 9.885c-7.993 0-14.464 6.456-14.464 14.424 0 7.986 6.471 14.438 14.464 14.438 8.02 0 14.484-6.453 14.484-14.438 0-7.968-6.463-14.424-14.484-14.424ZM8.071 24.309c0-9.633 7.821-17.424 17.464-17.424 9.669 0 17.484 7.79 17.484 17.424a17.35 17.35 0 0 1-4.428 11.611l4.265 4.264a10.375 10.375 0 0 1 5.613-1.638c2.096 0 4.046.615 5.678 1.674l5.002-4.547a17.343 17.343 0 0 1-3.612-10.625c0-9.64 7.82-17.428 17.464-17.428 9.67.001 17.482 7.788 17.482 17.428 0 9.643-7.81 17.435-17.482 17.435a17.421 17.421 0 0 1-11.824-4.599l-4.762 4.329a10.324 10.324 0 0 1 2.464 6.713c0 2.252-.716 4.335-1.935 6.035l5.231 5.183a17.425 17.425 0 0 1 11.008-3.892c9.667 0 17.483 7.787 17.483 17.428 0 9.643-7.817 17.435-17.483 17.435-9.642 0-17.467-7.792-17.467-17.435 0-4.389 1.621-8.393 4.298-11.454l-5.15-5.104a10.39 10.39 0 0 1-6.395 2.184c-2.34 0-4.5-.77-6.238-2.072l-4.227 4.275a17.339 17.339 0 0 1 4.279 11.438c0 9.642-7.812 17.434-17.484 17.434-9.642 0-17.462-7.793-17.462-17.434 0-9.643 7.82-17.43 17.462-17.43 4.193 0 8.037 1.463 11.047 3.908l4.267-4.316a10.32 10.32 0 0 1-2.044-6.183c0-2.59.948-4.956 2.515-6.772l-4.178-4.176a17.451 17.451 0 0 1-10.871 3.769c-9.643 0-17.464-7.789-17.464-17.438Zm45.86 29.61a7.342 7.342 0 0 0 1.948-4.993 7.348 7.348 0 0 0-2.403-5.447 1.502 1.502 0 0 1-.413-.35 7.401 7.401 0 0 0-4.594-1.583 7.384 7.384 0 0 0-4.57 1.572 1.507 1.507 0 0 1-.435.369 7.35 7.35 0 0 0-2.395 5.44c0 4.075 3.308 7.38 7.4 7.38a7.399 7.399 0 0 0 5.261-2.179 1.517 1.517 0 0 1 .201-.21Zm4.606-28.87c0-7.977 6.469-14.429 14.464-14.429 8.023.001 14.482 6.454 14.482 14.428 0 7.98-6.46 14.435-14.482 14.435-7.995 0-14.464-6.455-14.464-14.435Zm14.646 34.203c-7.994 0-14.467 6.452-14.467 14.428 0 7.979 6.475 14.435 14.467 14.435 8.017 0 14.483-6.456 14.483-14.435 0-7.975-6.464-14.428-14.483-14.428Zm-4.3 8.01a1.5 1.5 0 0 0-2.12 2.123l4.305 4.297-4.32 4.314a1.5 1.5 0 0 0 2.119 2.123l4.325-4.317 4.336 4.328a1.5 1.5 0 1 0 2.12-2.123l-4.333-4.325 4.333-4.327a1.5 1.5 0 1 0-2.12-2.123l-4.337 4.33-4.308-4.3Zm-58.546 5.685c0-7.979 6.47-14.43 14.462-14.43 8.023 0 14.484 6.452 14.484 14.43s-6.462 14.434-14.484 14.434c-7.991 0-14.462-6.455-14.462-14.434Zm8.036-5.67a1.5 1.5 0 0 1 2.122-.002l4.31 4.303 4.337-4.33a1.5 1.5 0 1 1 2.12 2.123l-4.334 4.326 4.334 4.325a1.5 1.5 0 0 1-2.12 2.124l-4.337-4.33-4.325 4.319a1.5 1.5 0 1 1-2.12-2.124l4.322-4.314-4.307-4.298a1.5 1.5 0 0 1-.002-2.122Zm48.9-48.642a1.5 1.5 0 0 1 2.12-.002l4.31 4.302 4.337-4.33a1.5 1.5 0 0 1 2.12 2.122l-4.334 4.327 4.334 4.325a1.5 1.5 0 1 1-2.12 2.124l-4.337-4.33-4.324 4.319a1.5 1.5 0 0 1-2.12-2.123l4.321-4.315-4.306-4.297a1.5 1.5 0 0 1-.002-2.122ZM19.106 17.9a1.5 1.5 0 0 1 2.122-.002l4.31 4.302 4.336-4.33a1.5 1.5 0 0 1 2.12 2.123l-4.333 4.326 4.333 4.325a1.5 1.5 0 0 1-2.12 2.124l-4.336-4.329-4.324 4.318a1.5 1.5 0 1 1-2.12-2.123l4.32-4.314-4.306-4.298a1.5 1.5 0 0 1-.002-2.122Z"/>
</svg>
