<svg xmlns="http://www.w3.org/2000/svg" fill-rule="evenodd" viewBox="0 0 100 100">
    <path d="M71.064 20.533c-6.576-1.438-13.508 4.625-15.454 13.518a1.5 1.5 0 1 0 2.93.641c1.594-7.277 6.934-12.313 11.884-11.229a1.499 1.499 0 1 0 .64-2.93z"/>
    <path d="M79.709 12.76c-5.285-2.451-11.464-2.075-17.402 1.059-3.066 1.618-5.868 3.891-8.295 6.643-3.85-10.873-12.747-17.97-21.998-17.149-11.813 1.042-20.335 14.291-18.995 29.536 1.089 12.363 8.133 22.608 17.299 25.375l.786 8.923a1.5 1.5 0 0 0 1.626 1.362l3.152-.277c-.801 2.718-1.853 8.112.683 12.424 2.408 4.093.712 9.283.074 11.236-.109.334-.191.593-.235.765a1.5 1.5 0 1 0 2.908.738c.033-.128.098-.321.18-.571.753-2.306 2.753-8.431-.34-13.689-2.384-4.053-.51-9.84-.019-11.188l3.561-.313a1.5 1.5 0 0 0 1.363-1.625l-.783-8.923c1.458-.742 2.83-1.707 4.106-2.868.897 1.976 2.051 3.773 3.487 5.298l-3.769 8.125a1.506 1.506 0 0 0 .73 1.992l2.826 1.31c-.689 1.914-2.7 8.524.297 13.616 2.405 4.094.712 9.282.074 11.235-.109.335-.192.596-.235.768a1.499 1.499 0 1 0 2.908.736c.032-.128.098-.322.18-.573.752-2.305 2.75-8.427-.341-13.687-2.21-3.757-.761-9.005-.146-10.827l3.514 1.629a1.497 1.497 0 0 0 1.991-.73l3.768-8.124c9.564.493 19.673-6.751 24.888-17.997 6.434-13.886 2.917-29.241-7.843-34.229zM41.092 54.795a1.499 1.499 0 0 0-.9 1.508l.744 8.473-6.975.613-.747-8.473a1.498 1.498 0 0 0-1.151-1.328c-8.301-1.949-15.053-11.623-16.056-23.002-1.195-13.597 6.104-25.388 16.27-26.285 8.381-.739 16.477 6.388 19.492 17.011a35.708 35.708 0 0 0-3.249 5.581c-3.509 7.565-4.195 15.636-2.283 22.238-1.552 1.614-3.276 2.857-5.145 3.664zm43.736-9.068c-4.799 10.35-14.43 17.161-22.914 16.187a1.494 1.494 0 0 0-1.531.859l-3.577 7.714-6.355-2.946 3.578-7.716a1.5 1.5 0 0 0-.335-1.726c-6.226-5.832-7.257-17.584-2.452-27.946a32.707 32.707 0 0 1 3.335-5.615c.05-.061.097-.123.137-.191 2.507-3.354 5.574-6.072 8.994-7.876 5.093-2.686 10.327-3.037 14.74-.99 9.258 4.293 12.121 17.862 6.38 30.246z"/>
</svg>
