<?xml version="1.0" encoding="UTF-8"?> <svg xmlns="http://www.w3.org/2000/svg" viewBox="0 0 854.08 812.62"> <defs> <style>.cls-1{fill:#ff5136;stroke:#000;stroke-width:4px;}.cls-1,.cls-3,.cls-4{stroke-linejoin:round;}.cls-2,.cls-4{fill:none;stroke-width:5px;}.cls-2,.cls-3,.cls-4{stroke:#fff;}.cls-2{stroke-miterlimit:10;}.cls-3{fill:#fff;stroke-width:3px;}</style> </defs> <title>Artboard 32</title> <g id="Layer_1" data-name="Layer 1"> <rect class="cls-1" x="-24.64" y="-22.9" width="904.97" height="855.49"></rect> <path class="cls-2" d="M512.53,484a122.55,122.55,0,1,1,29.61-45.57"></path> <ellipse class="cls-2" cx="426.72" cy="395.89" rx="62.71" ry="122.96"></ellipse> <line class="cls-2" x1="426.72" y1="272.93" x2="426.72" y2="518.85"></line> <line class="cls-2" x1="303.76" y1="395.89" x2="532.1" y2="395.89"></line> <line class="cls-2" x1="341.42" y1="335.41" x2="533.81" y2="335.41"></line> <line class="cls-2" x1="319.64" y1="456.37" x2="513.97" y2="456.37"></line> <polygon class="cls-3" points="572.34 487.22 524.33 441.76 524.35 508.09 540.76 493.01 550.69 515.7 560.01 511.62 550.22 489.26 572.34 487.22"></polygon> <path class="cls-4" d="M340.3,259.06s-55.5,26.87-68.2,94.74"></path> <path class="cls-4" d="M302.08,262.87s17.56-21.9,50.15-31.16"></path> <path class="cls-4" d="M574,345.64s10.17,16.69,9.54,50.25"></path> </g> </svg> 