<?xml version="1.0" encoding="UTF-8"?> <svg xmlns="http://www.w3.org/2000/svg" viewBox="0 0 854.08 812.62"> <defs> <style>.cls-1{fill:#ff5136;stroke:#000;stroke-linejoin:round;stroke-width:4px;}.cls-2{fill:none;}.cls-2,.cls-3{stroke:#fff;stroke-miterlimit:10;stroke-width:5px;}.cls-3{fill:#fff;}</style> </defs> <title>Artboard 32 copy</title> <g id="Layer_1" data-name="Layer 1"> <rect class="cls-1" x="-24.64" y="-22.9" width="904.97" height="855.49"></rect> <path class="cls-2" d="M327.34,442.8a109.7,109.7,0,1,1,56.25,61.82"></path> <path class="cls-2" d="M315.26,459.27a127.23,127.23,0,1,1,50.92,55.89"></path> <polyline class="cls-2" points="429.95 355.09 429.95 405.37 459.95 405.37"></polyline> <polygon class="cls-3" points="344.97 538.76 332.42 497.7 291.37 485.16 332.42 472.62 344.97 431.56 357.51 472.62 398.57 485.16 357.51 497.7 344.97 538.76"></polygon> <line class="cls-3" x1="355.88" y1="405.37" x2="338.31" y2="405.37"></line> <line class="cls-3" x1="524.55" y1="405.37" x2="506.98" y2="405.37"></line> <line class="cls-3" x1="429.95" y1="497.29" x2="429.95" y2="479.72"></line> <line class="cls-3" x1="430.58" y1="329.19" x2="430.58" y2="311.62"></line> <polygon class="cls-3" points="553.78 274.18 546.55 250.53 522.9 243.3 546.55 236.07 553.78 212.42 561 236.07 584.66 243.3 561 250.53 553.78 274.18"></polygon> <polygon class="cls-3" points="261.39 539.83 257.78 528.01 245.95 524.39 257.78 520.78 261.39 508.95 265 520.78 276.83 524.39 265 528.01 261.39 539.83"></polygon> <line class="cls-3" x1="328.67" y1="281.98" x2="292.39" y2="240.04"></line> <line class="cls-3" x1="326.09" y1="245.83" x2="299.76" y2="212.42"></line> <line class="cls-3" x1="540.36" y1="533.76" x2="575.65" y2="569.05"></line> </g> </svg> 