<?xml version="1.0" encoding="UTF-8"?> <!-- Generator: Adobe Illustrator 23.1.1, SVG Export Plug-In . SVG Version: 6.00 Build 0) --> <svg xmlns="http://www.w3.org/2000/svg" xmlns:xlink="http://www.w3.org/1999/xlink" id="Layer_1" x="0px" y="0px" viewBox="0 0 811 157" style="enable-background:new 0 0 811 157;" xml:space="preserve"> <style type="text/css"> .st0{fill:none;stroke:#00A3FF;stroke-width:12;stroke-linecap:round;stroke-linejoin:round;stroke-miterlimit:10;} .st1{fill:none;stroke:#FF4A2C;stroke-width:12;stroke-linecap:round;stroke-linejoin:round;stroke-miterlimit:10;} </style> <path class="st0" d="M55,127.8V151h47.9v-48.1H151V55h-48.1"></path> <path class="st1" d="M102,29.2V6H54.1v48.1H6V102h48.1"></path> <path d="M223.4,33c1.8,3,3.7,6.8,5.9,11.2s4.4,9,6.6,13.9c2.2,4.8,4.4,9.7,6.6,14.8c2.2,5,4.3,9.6,6.1,13.8c1.8-4.2,3.8-8.8,6-13.8 c2.2-5,4.4-10,6.6-14.8c2.2-4.9,4.4-9.5,6.6-13.9c2.2-4.4,4.1-8.1,5.9-11.2h13.7c0.7,6.1,1.4,12.6,2,19.4c0.6,6.8,1.2,13.8,1.7,21 c0.6,7.1,1,14.3,1.4,21.6c0.5,7.2,0.9,14.2,1.2,21.1h-14.9c-0.3-9.7-0.7-19.6-1.2-29.9c-0.4-10.2-1-20.2-1.9-29.8 c-0.9,1.8-1.9,4-3.1,6.6c-1.2,2.6-2.5,5.4-3.8,8.4c-1.4,3-2.8,6-4.2,9.2c-1.4,3.2-2.7,6.3-4.1,9.4c-1.3,3-2.5,5.8-3.6,8.4 c-1.1,2.6-2.1,4.8-2.9,6.6h-11.3c-0.8-1.8-1.8-4.1-2.9-6.7c-1.1-2.6-2.4-5.4-3.7-8.4c-1.3-3-2.6-6.2-4.1-9.4 c-1.4-3.2-2.7-6.3-4.1-9.2s-2.6-5.7-3.8-8.3c-1.2-2.6-2.2-4.8-3.1-6.6c-0.9,9.6-1.6,19.5-2,29.8c-0.4,10.2-0.8,20.2-1.1,29.9H203 c0.3-6.9,0.7-14,1.1-21.4c0.5-7.4,1-14.6,1.4-21.8c0.6-7.3,1.2-14.3,1.8-21.1c0.6-6.8,1.3-13.1,2-18.8H223.4z"></path> <path d="M307.1,85c0-5.5,0.8-10.4,2.4-14.5c1.7-4.2,3.9-7.6,6.6-10.3c2.7-2.8,5.8-4.9,9.4-6.2c3.5-1.4,7.1-2.2,10.8-2.2 c8.6,0,15.4,2.7,20.2,8c4.9,5.4,7.3,13.4,7.3,24c0,0.8,0,1.7-0.1,2.8c0,1,0,1.8-0.1,2.6h-41.4c0.4,5,2.2,9,5.3,11.8 c3.2,2.7,7.8,4.1,13.8,4.1c3.5,0,6.7-0.3,9.6-1c3-0.6,5.3-1.3,7-2l1.9,11.9c-0.8,0.4-1.9,0.8-3.4,1.3c-1.4,0.4-3,0.8-4.8,1.1 c-1.8,0.4-3.7,0.7-5.8,1c-2.1,0.2-4.2,0.4-6.4,0.4c-5.5,0-10.3-0.8-14.4-2.4c-4.1-1.7-7.4-4-10.1-6.8c-2.6-3-4.6-6.4-5.9-10.3 C307.8,94.1,307.1,89.8,307.1,85z M349.3,78.6c0-2-0.3-3.9-0.8-5.6c-0.6-1.8-1.4-3.4-2.5-4.7c-1-1.4-2.4-2.4-4-3.1 c-1.5-0.8-3.4-1.2-5.5-1.2c-2.2,0-4.2,0.4-5.9,1.3c-1.7,0.8-3.1,1.9-4.3,3.2c-1.1,1.4-2,2.9-2.6,4.7c-0.6,1.8-1.1,3.6-1.3,5.4H349.3 z"></path> <path d="M390.6,84.6c0,6.4,1.5,11.4,4.6,15.1c3,3.6,7.2,5.4,12.6,5.4c2.3,0,4.3-0.1,5.9-0.2c1.7-0.2,3-0.5,4.1-0.7v-36 c-1.3-0.9-3-1.7-5.2-2.4c-2.1-0.8-4.3-1.2-6.7-1.2c-5.3,0-9.2,1.8-11.6,5.4C391.8,73.5,390.6,78.4,390.6,84.6z M432.2,114.2 c-2.9,0.9-6.5,1.7-10.9,2.4c-4.3,0.7-8.9,1.1-13.7,1.1c-5,0-9.4-0.8-13.3-2.3c-3.9-1.5-7.3-3.7-10.1-6.5c-2.7-2.9-4.8-6.3-6.4-10.3 c-1.4-4.1-2.2-8.6-2.2-13.7c0-5,0.6-9.4,1.8-13.4c1.3-4.1,3.1-7.6,5.5-10.4c2.4-2.9,5.3-5.1,8.8-6.6c3.4-1.6,7.4-2.4,11.9-2.4 c3,0,5.7,0.4,8,1.1c2.3,0.7,4.3,1.5,6,2.4V25.4l14.5-2.4V114.2z"></path> <path d="M466.4,105.7c3.8,0,6.6-0.4,8.4-1.3c1.8-1,2.6-2.6,2.6-4.8c0-2.1-1-3.8-2.9-5.2c-1.8-1.4-4.9-2.8-9.2-4.4 c-2.6-1-5.1-2-7.3-3c-2.2-1.1-4-2.4-5.6-3.8c-1.6-1.4-2.9-3.2-3.8-5.2c-0.9-2.1-1.3-4.6-1.3-7.6c0-5.8,2.1-10.3,6.4-13.6 c4.2-3.4,10-5,17.3-5c3.7,0,7.2,0.4,10.6,1.1c3.4,0.6,5.9,1.3,7.6,1.9l-2.6,11.8c-1.6-0.7-3.6-1.4-6.1-1.9c-2.5-0.6-5.4-1-8.6-1 c-3,0-5.4,0.5-7.2,1.6c-1.8,1-2.8,2.5-2.8,4.6c0,1,0.2,2,0.5,2.8c0.4,0.8,1,1.6,1.9,2.3c0.9,0.6,2,1.3,3.5,2c1.4,0.6,3.2,1.3,5.3,2 c3.4,1.3,6.4,2.6,8.8,3.8c2.4,1.2,4.4,2.6,5.9,4.2c1.6,1.5,2.8,3.3,3.5,5.3s1.1,4.4,1.1,7.2c0,6-2.2,10.6-6.7,13.7 c-4.4,3-10.7,4.6-19,4.6c-5.5,0-10-0.5-13.3-1.4c-3.4-0.9-5.7-1.6-7.1-2.2l2.5-12.1c2.2,0.9,4.7,1.7,7.7,2.5 C459.1,105.3,462.5,105.7,466.4,105.7z"></path> <path d="M554,117.9c-6.2,0-11.8-1-16.8-2.9s-9.2-4.7-12.6-8.4c-3.4-3.8-6.1-8.3-7.9-13.7c-1.8-5.4-2.8-11.5-2.8-18.5 c0-7,1-13.1,3.1-18.5c2.2-5.4,5.1-9.9,8.8-13.6c3.7-3.8,8-6.6,13-8.5c5-1.9,10.3-2.9,16-2.9c3.4,0,6.6,0.3,9.4,0.8 c2.8,0.5,5.2,1,7.3,1.7c2.1,0.6,3.8,1.3,5.2,2c1.4,0.7,2.3,1.2,2.9,1.6L575,49.5c-1.9-1.2-4.7-2.3-8.3-3.4 c-3.5-1.1-7.4-1.7-11.5-1.7c-3.6,0-7,0.6-10.1,1.9c-3.1,1.2-5.8,3-8.2,5.5c-2.2,2.5-4,5.6-5.3,9.4c-1.3,3.8-1.9,8.1-1.9,13.1 c0,4.4,0.5,8.4,1.4,12.1c1,3.7,2.6,6.9,4.7,9.6c2.1,2.6,4.7,4.7,7.9,6.2c3.2,1.4,7,2.2,11.5,2.2c5.4,0,9.7-0.5,13.1-1.6 c3.4-1.1,6-2.2,7.8-3.1l4.1,12.4c-1,0.6-2.3,1.3-4,1.9c-1.6,0.6-3.5,1.3-5.8,1.9c-2.2,0.6-4.8,1-7.6,1.3 C560.2,117.7,557.2,117.9,554,117.9z"></path> <path d="M614.7,117.3c-4.3-0.1-7.9-0.6-10.8-1.4c-2.8-0.9-5-2.1-6.7-3.7c-1.7-1.7-2.9-3.7-3.6-6.1c-0.6-2.5-1-5.3-1-8.4V25.4 l14.5-2.4v71.9c0,1.8,0.1,3.2,0.4,4.4c0.3,1.2,0.8,2.2,1.6,3.1c0.7,0.8,1.7,1.4,2.9,1.9c1.3,0.4,2.9,0.7,4.8,1L614.7,117.3z"></path> <path d="M643.1,116.1h-14.5V53.4h14.5V116.1z M644.6,35c0,2.7-0.9,4.9-2.6,6.5c-1.8,1.6-3.8,2.4-6.2,2.4c-2.5,0-4.6-0.8-6.4-2.4 c-1.8-1.6-2.6-3.8-2.6-6.5c0-2.8,0.9-5,2.6-6.6s3.9-2.4,6.4-2.4c2.4,0,4.5,0.8,6.2,2.4S644.6,32.2,644.6,35z"></path> <path d="M661.6,55.4c2.8-0.8,6.4-1.6,10.9-2.3c4.5-0.7,9.4-1.1,14.9-1.1c5.1,0,9.4,0.7,12.8,2.2c3.4,1.4,6.2,3.3,8.2,5.9 c2.1,2.5,3.5,5.5,4.3,9.1c0.9,3.5,1.3,7.4,1.3,11.6v35.3h-14.5v-33c0-3.4-0.2-6.2-0.7-8.5c-0.4-2.4-1.1-4.3-2.2-5.8 c-1-1.5-2.3-2.6-4.1-3.2c-1.7-0.7-3.8-1.1-6.2-1.1c-1.8,0-3.8,0.1-5.8,0.4c-2,0.2-3.5,0.4-4.4,0.6v50.6h-14.5V55.4z"></path> <path d="M746.4,116.1h-14.5V53.4h14.5V116.1z M748,35c0,2.7-0.9,4.9-2.6,6.5c-1.8,1.6-3.8,2.4-6.2,2.4c-2.5,0-4.6-0.8-6.4-2.4 c-1.8-1.6-2.6-3.8-2.6-6.5c0-2.8,0.9-5,2.6-6.6s3.9-2.4,6.4-2.4c2.4,0,4.5,0.8,6.2,2.4S748,32.2,748,35z"></path> <path d="M761.5,84.8c0-4.6,0.7-9,2.2-13c1.4-4.1,3.5-7.6,6.1-10.6c2.7-3,6-5.3,9.8-7c3.8-1.7,8.2-2.5,13-2.5 c5.9,0,11.5,1.1,16.8,3.2l-3.1,11.9c-1.7-0.7-3.6-1.3-5.8-1.8c-2.1-0.5-4.3-0.7-6.7-0.7c-5.7,0-10,1.8-13,5.4c-3,3.5-4.4,8.5-4.4,15 c0,6.2,1.4,11.2,4.2,14.9c2.8,3.6,7.5,5.4,14.2,5.4c2.5,0,4.9-0.2,7.3-0.7c2.4-0.5,4.5-1.1,6.2-1.8l2,12c-1.6,0.8-4,1.5-7.3,2.2 c-3.2,0.6-6.5,1-10,1c-5.4,0-10-0.8-14-2.4c-3.9-1.7-7.2-4-9.8-6.8c-2.6-3-4.5-6.4-5.8-10.4C762.1,93.9,761.5,89.5,761.5,84.8z"></path> </svg> 