<?xml version="1.0" encoding="UTF-8"?> <svg xmlns="http://www.w3.org/2000/svg" width="811" height="157" viewBox="0 0 811 157" fill="none"> <path d="M102 29.2218V6H54.1245V54.1245H6V102H54.1245" stroke="white" stroke-width="12" stroke-miterlimit="10" stroke-linecap="round" stroke-linejoin="round"></path> <path d="M55 127.825V151H102.907V102.907H151V55H102.907" stroke="white" stroke-width="12" stroke-miterlimit="10" stroke-linecap="round" stroke-linejoin="round"></path> <path d="M223.4 32.96C225.16 36 227.12 39.72 229.28 44.12C231.44 48.52 233.64 53.16 235.88 58.04C238.12 62.84 240.32 67.76 242.48 72.8C244.72 77.76 246.76 82.36 248.6 86.6C250.44 82.36 252.44 77.76 254.6 72.8C256.76 67.76 258.96 62.84 261.2 58.04C263.44 53.16 265.64 48.52 267.8 44.12C269.96 39.72 271.92 36 273.68 32.96H287.36C288.08 39.04 288.76 45.52 289.4 52.4C290.04 59.2 290.6 66.2 291.08 73.4C291.64 80.52 292.12 87.72 292.52 95C293 102.2 293.4 109.24 293.72 116.12H278.84C278.52 106.44 278.12 96.48 277.64 86.24C277.24 76 276.6 66.08 275.72 56.48C274.84 58.32 273.8 60.52 272.6 63.08C271.4 65.64 270.12 68.44 268.76 71.48C267.4 74.44 266 77.52 264.56 80.72C263.2 83.92 261.84 87.04 260.48 90.08C259.2 93.04 258 95.84 256.88 98.48C255.76 101.04 254.8 103.24 254 105.08H242.72C241.92 103.24 240.96 101 239.84 98.36C238.72 95.72 237.48 92.92 236.12 89.96C234.84 86.92 233.48 83.8 232.04 80.6C230.68 77.4 229.32 74.32 227.96 71.36C226.6 68.4 225.32 65.64 224.12 63.08C222.92 60.44 221.88 58.24 221 56.48C220.12 66.08 219.44 76 218.96 86.24C218.56 96.48 218.2 106.44 217.88 116.12H203C203.32 109.24 203.68 102.12 204.08 94.76C204.56 87.4 205.04 80.12 205.52 72.92C206.08 65.64 206.68 58.6 207.32 51.8C207.96 45 208.64 38.72 209.36 32.96H223.4Z" fill="white"></path> <path d="M307.135 85.04C307.135 79.52 307.935 74.68 309.535 70.52C311.215 66.36 313.415 62.92 316.135 60.2C318.855 57.4 321.975 55.32 325.495 53.96C329.015 52.52 332.615 51.8 336.295 51.8C344.935 51.8 351.655 54.48 356.455 59.84C361.335 65.2 363.775 73.2 363.775 83.84C363.775 84.64 363.735 85.56 363.655 86.6C363.655 87.56 363.615 88.44 363.535 89.24H322.135C322.535 94.28 324.295 98.2 327.415 101C330.615 103.72 335.215 105.08 341.215 105.08C344.735 105.08 347.935 104.76 350.815 104.12C353.775 103.48 356.095 102.8 357.775 102.08L359.695 113.96C358.895 114.36 357.775 114.8 356.335 115.28C354.975 115.68 353.375 116.04 351.535 116.36C349.775 116.76 347.855 117.08 345.775 117.32C343.695 117.56 341.575 117.68 339.415 117.68C333.895 117.68 329.095 116.88 325.015 115.28C320.935 113.6 317.575 111.32 314.935 108.44C312.295 105.48 310.335 102.04 309.055 98.12C307.775 94.12 307.135 89.76 307.135 85.04ZM349.255 78.56C349.255 76.56 348.975 74.68 348.415 72.92C347.855 71.08 347.015 69.52 345.895 68.24C344.855 66.88 343.535 65.84 341.935 65.12C340.415 64.32 338.575 63.92 336.415 63.92C334.175 63.92 332.215 64.36 330.535 65.24C328.855 66.04 327.415 67.12 326.215 68.48C325.095 69.84 324.215 71.4 323.575 73.16C322.935 74.92 322.495 76.72 322.255 78.56H349.255Z" fill="white"></path> <path d="M390.569 84.56C390.569 90.96 392.089 96 395.129 99.68C398.169 103.28 402.369 105.08 407.729 105.08C410.049 105.08 412.009 105 413.609 104.84C415.289 104.6 416.649 104.36 417.689 104.12V68.12C416.409 67.24 414.689 66.44 412.529 65.72C410.449 64.92 408.209 64.52 405.809 64.52C400.529 64.52 396.649 66.32 394.169 69.92C391.769 73.52 390.569 78.4 390.569 84.56ZM432.209 114.2C429.329 115.08 425.689 115.88 421.289 116.6C416.969 117.32 412.409 117.68 407.609 117.68C402.649 117.68 398.209 116.92 394.289 115.4C390.369 113.88 387.009 111.72 384.209 108.92C381.489 106.04 379.369 102.6 377.849 98.6C376.409 94.52 375.689 89.96 375.689 84.92C375.689 79.96 376.289 75.48 377.489 71.48C378.769 67.4 380.609 63.92 383.009 61.04C385.409 58.16 388.329 55.96 391.769 54.44C395.209 52.84 399.169 52.04 403.649 52.04C406.689 52.04 409.369 52.4 411.689 53.12C414.009 53.84 416.009 54.64 417.689 55.52V25.4L432.209 23V114.2Z" fill="white"></path> <path d="M466.374 105.68C470.214 105.68 473.014 105.24 474.774 104.36C476.534 103.4 477.414 101.8 477.414 99.56C477.414 97.48 476.454 95.76 474.534 94.4C472.694 93.04 469.614 91.56 465.294 89.96C462.654 89 460.214 88 457.974 86.96C455.814 85.84 453.934 84.56 452.334 83.12C450.734 81.68 449.454 79.96 448.494 77.96C447.614 75.88 447.174 73.36 447.174 70.4C447.174 64.64 449.294 60.12 453.534 56.84C457.774 53.48 463.534 51.8 470.814 51.8C474.494 51.8 478.014 52.16 481.374 52.88C484.734 53.52 487.254 54.16 488.934 54.8L486.294 66.56C484.694 65.84 482.654 65.2 480.174 64.64C477.694 64 474.814 63.68 471.534 63.68C468.574 63.68 466.174 64.2 464.334 65.24C462.494 66.2 461.574 67.72 461.574 69.8C461.574 70.84 461.734 71.76 462.054 72.56C462.454 73.36 463.094 74.12 463.974 74.84C464.854 75.48 466.014 76.16 467.454 76.88C468.894 77.52 470.654 78.2 472.734 78.92C476.174 80.2 479.094 81.48 481.494 82.76C483.894 83.96 485.854 85.36 487.374 86.96C488.974 88.48 490.134 90.24 490.854 92.24C491.574 94.24 491.934 96.64 491.934 99.44C491.934 105.44 489.694 110 485.214 113.12C480.814 116.16 474.494 117.68 466.254 117.68C460.734 117.68 456.294 117.2 452.934 116.24C449.574 115.36 447.214 114.64 445.854 114.08L448.374 101.96C450.534 102.84 453.094 103.68 456.054 104.48C459.094 105.28 462.534 105.68 466.374 105.68Z" fill="white"></path> <path d="M553.977 117.92C547.737 117.92 542.137 116.96 537.177 115.04C532.217 113.12 528.017 110.32 524.577 106.64C521.137 102.88 518.498 98.32 516.658 92.96C514.818 87.6 513.897 81.44 513.897 74.48C513.897 67.52 514.937 61.36 517.017 56C519.177 50.64 522.097 46.12 525.777 42.44C529.457 38.68 533.777 35.84 538.737 33.92C543.697 32 549.017 31.04 554.697 31.04C558.137 31.04 561.257 31.32 564.057 31.88C566.857 32.36 569.298 32.92 571.378 33.56C573.458 34.2 575.178 34.88 576.538 35.6C577.898 36.32 578.857 36.84 579.417 37.16L574.977 49.52C573.057 48.32 570.297 47.2 566.697 46.16C563.177 45.04 559.337 44.48 555.177 44.48C551.577 44.48 548.217 45.12 545.097 46.4C541.977 47.6 539.258 49.44 536.938 51.92C534.698 54.4 532.938 57.52 531.658 61.28C530.378 65.04 529.737 69.4 529.737 74.36C529.737 78.76 530.217 82.8 531.177 86.48C532.217 90.16 533.777 93.36 535.857 96.08C537.937 98.72 540.577 100.8 543.777 102.32C546.977 103.76 550.817 104.48 555.297 104.48C560.657 104.48 565.018 103.96 568.378 102.92C571.738 101.8 574.337 100.76 576.177 99.8L580.257 112.16C579.297 112.8 577.977 113.44 576.297 114.08C574.697 114.72 572.778 115.36 570.538 116C568.298 116.56 565.777 117 562.977 117.32C560.177 117.72 557.177 117.92 553.977 117.92Z" fill="white"></path> <path d="M614.661 117.32C610.341 117.24 606.741 116.76 603.861 115.88C601.061 115 598.821 113.76 597.141 112.16C595.461 110.48 594.261 108.44 593.541 106.04C592.901 103.56 592.581 100.76 592.581 97.64V25.4L607.101 23V94.88C607.101 96.64 607.221 98.12 607.461 99.32C607.781 100.52 608.301 101.56 609.021 102.44C609.741 103.24 610.701 103.88 611.901 104.36C613.181 104.76 614.781 105.08 616.701 105.32L614.661 117.32Z" fill="white"></path> <path d="M643.086 116.12H628.566V53.36H643.086V116.12ZM644.646 35C644.646 37.72 643.766 39.88 642.006 41.48C640.246 43.08 638.166 43.88 635.766 43.88C633.286 43.88 631.166 43.08 629.406 41.48C627.646 39.88 626.766 37.72 626.766 35C626.766 32.2 627.646 30 629.406 28.4C631.166 26.8 633.286 26 635.766 26C638.166 26 640.246 26.8 642.006 28.4C643.766 30 644.646 32.2 644.646 35Z" fill="white"></path> <path d="M661.61 55.4C664.41 54.6 668.05 53.84 672.53 53.12C677.01 52.4 681.97 52.04 687.41 52.04C692.53 52.04 696.81 52.76 700.25 54.2C703.69 55.56 706.41 57.52 708.41 60.08C710.49 62.56 711.93 65.6 712.73 69.2C713.61 72.72 714.05 76.6 714.05 80.84V116.12H699.53V83.12C699.53 79.76 699.29 76.92 698.81 74.6C698.41 72.2 697.69 70.28 696.65 68.84C695.69 67.32 694.33 66.24 692.57 65.6C690.89 64.88 688.81 64.52 686.33 64.52C684.49 64.52 682.57 64.64 680.57 64.88C678.57 65.12 677.09 65.32 676.13 65.48V116.12H661.61V55.4Z" fill="white"></path> <path d="M746.445 116.12H731.925V53.36H746.445V116.12ZM748.005 35C748.005 37.72 747.125 39.88 745.365 41.48C743.605 43.08 741.525 43.88 739.125 43.88C736.645 43.88 734.525 43.08 732.765 41.48C731.005 39.88 730.125 37.72 730.125 35C730.125 32.2 731.005 30 732.765 28.4C734.525 26.8 736.645 26 739.125 26C741.525 26 743.605 26.8 745.365 28.4C747.125 30 748.005 32.2 748.005 35Z" fill="white"></path> <path d="M761.489 84.8C761.489 80.16 762.209 75.84 763.649 71.84C765.089 67.76 767.129 64.24 769.769 61.28C772.489 58.32 775.769 56 779.609 54.32C783.449 52.64 787.769 51.8 792.569 51.8C798.489 51.8 804.089 52.88 809.369 55.04L806.249 66.92C804.569 66.2 802.649 65.6 800.489 65.12C798.409 64.64 796.169 64.4 793.769 64.4C788.089 64.4 783.769 66.2 780.809 69.8C777.849 73.32 776.369 78.32 776.369 84.8C776.369 91.04 777.769 96 780.569 99.68C783.369 103.28 788.089 105.08 794.729 105.08C797.209 105.08 799.649 104.84 802.049 104.36C804.449 103.88 806.529 103.28 808.289 102.56L810.329 114.56C808.729 115.36 806.289 116.08 803.009 116.72C799.809 117.36 796.489 117.68 793.049 117.68C787.689 117.68 783.009 116.88 779.009 115.28C775.089 113.6 771.809 111.32 769.169 108.44C766.609 105.48 764.689 102 763.409 98C762.129 93.92 761.489 89.52 761.489 84.8Z" fill="white"></path> </svg> 