<?xml version="1.0" encoding="UTF-8"?> <svg xmlns="http://www.w3.org/2000/svg" viewBox="0 0 854.08 812.62"> <defs> <style>.cls-1{fill:#ff5136;stroke:#000;stroke-linejoin:round;stroke-width:4px;}.cls-2{fill:none;}.cls-2,.cls-3{stroke:#fff;stroke-miterlimit:10;stroke-width:5px;}.cls-3{fill:#fff;}</style> </defs> <title>Artboard 32 copy 3</title> <g id="Layer_1" data-name="Layer 1"> <rect class="cls-1" x="-24.64" y="-22.9" width="904.97" height="855.49"></rect> <path class="cls-2" d="M435.71,367.61c0,29.31-53.07,97.13-53.07,97.13s-53.07-67.82-53.07-97.13a53.07,53.07,0,0,1,106.14,0Z"></path> <circle class="cls-2" cx="382.64" cy="365.32" r="20.1"></circle> <polyline class="cls-2" points="411.22 425.4 513.51 425.4 586.9 520.15 348.56 520.15 275.18 425.4 354.18 425.4"></polyline> <path class="cls-2" d="M412.7,289.14S454,298.68,464,348"></path> <path class="cls-2" d="M439.38,286.28s-12.33-16-43.65-16.75"></path> <path class="cls-3" d="M479.34,425.4s37.93,19.84,36.16,32.24c-2.69,18.86-51.29,15.14-10,62.51h81.4L513.52,425.4Z"></path> <path class="cls-2" d="M301.84,459.82s68.75,6,93.89,60.33"></path> <path class="cls-2" d="M498.17,460.68s-36.88,11.22-28.37,44"></path> </g> </svg> 