<?xml version="1.0" encoding="UTF-8"?> <svg xmlns="http://www.w3.org/2000/svg" viewBox="0 0 854.08 812.62"> <defs> <style>.cls-1{fill:#ff5136;stroke:#000;stroke-linejoin:round;stroke-width:4px;}.cls-2{fill:none;}.cls-2,.cls-3,.cls-4{stroke:#fff;stroke-miterlimit:10;}.cls-2,.cls-4{stroke-width:5px;}.cls-3,.cls-4{fill:#fff;}.cls-3{stroke-width:7px;}</style> </defs> <title>Artboard 32 copy 2</title> <g id="Layer_1" data-name="Layer 1"> <rect class="cls-1" x="-24.64" y="-22.9" width="904.97" height="855.49"></rect> <path class="cls-2" d="M467.1,364.46c-1.69-39.38-42.23-70.89-92-70.89-50.84,0-92.05,32.88-92.05,73.44,0,20.23,10.26,38.55,26.85,51.83v49.23l32.43-32.43a112.52,112.52,0,0,0,32.77,4.8q4.75,0,9.41-.38"></path> <path class="cls-2" d="M477.74,364c50.83,0,92,32.88,92,73.43,0,20.23-10.26,38.56-26.85,51.84v49.22L510.5,506a112.84,112.84,0,0,1-32.76,4.79c-50.84,0-92.05-32.87-92.05-73.43S426.9,364,477.74,364Z"></path> <circle class="cls-3" cx="441.85" cy="439.54" r="4.78"></circle> <circle class="cls-3" cx="475.51" cy="439.54" r="4.78"></circle> <circle class="cls-3" cx="509.16" cy="439.54" r="4.78"></circle> <line class="cls-4" x1="542.93" y1="323.65" x2="586.07" y2="258.8"></line> <line class="cls-4" x1="574.56" y1="321.19" x2="603.31" y2="290.72"></line> <line class="cls-4" x1="404.68" y1="519.5" x2="382.36" y2="541.82"></line> <circle class="cls-3" cx="355.09" cy="368.75" r="4.78"></circle> <circle class="cls-3" cx="388.74" cy="368.75" r="4.78"></circle> <path class="cls-2" d="M350.31,275.09s-72.5,5.63-87.95,77.1"></path> <path class="cls-2" d="M312.93,270.89s31.56-17.38,72.76-8.37"></path> <path class="cls-2" d="M463.7,347.83s80.37-10.67,114.72,51.93"></path> </g> </svg> 